<mxfile host="app.diagrams.net" agent="Mozilla/5.0 (X11; Linux x86_64) AppleWebKit/537.36 (KHTML, like Gecko) Chrome/124.0.0.0 Safari/537.36" version="24.7.16">
  <diagram name="Page-1" id="jto-qtzXlHKbKDOFZij-">
    <mxGraphModel dx="2607" dy="1433" grid="1" gridSize="10" guides="1" tooltips="1" connect="1" arrows="1" fold="1" page="1" pageScale="1" pageWidth="850" pageHeight="1100" math="0" shadow="0">
      <root>
        <mxCell id="0" />
        <mxCell id="1" parent="0" />
        <mxCell id="kgj0ZtWSBMvPHDnNzbXX-134" style="edgeStyle=orthogonalEdgeStyle;rounded=0;orthogonalLoop=1;jettySize=auto;html=1;entryX=0;entryY=0.5;entryDx=0;entryDy=0;" parent="1" source="kgj0ZtWSBMvPHDnNzbXX-1" edge="1">
          <mxGeometry relative="1" as="geometry">
            <mxPoint x="1200" y="335" as="targetPoint" />
          </mxGeometry>
        </mxCell>
        <mxCell id="kgj0ZtWSBMvPHDnNzbXX-1" value="" style="rounded=0;whiteSpace=wrap;html=1;" parent="1" vertex="1">
          <mxGeometry x="820" y="280" width="240" height="220" as="geometry" />
        </mxCell>
        <mxCell id="kgj0ZtWSBMvPHDnNzbXX-7" value="" style="endArrow=none;html=1;rounded=0;entryX=0.5;entryY=0;entryDx=0;entryDy=0;exitX=0.5;exitY=1;exitDx=0;exitDy=0;" parent="1" source="kgj0ZtWSBMvPHDnNzbXX-1" target="kgj0ZtWSBMvPHDnNzbXX-1" edge="1">
          <mxGeometry width="50" height="50" relative="1" as="geometry">
            <mxPoint x="920" y="360" as="sourcePoint" />
            <mxPoint x="970" y="310" as="targetPoint" />
          </mxGeometry>
        </mxCell>
        <mxCell id="kgj0ZtWSBMvPHDnNzbXX-9" value="&lt;font style=&quot;font-size: 20px;&quot;&gt;siguiente&lt;/font&gt;" style="text;html=1;align=center;verticalAlign=middle;whiteSpace=wrap;rounded=0;" parent="1" vertex="1">
          <mxGeometry x="960" y="320" width="80" height="30" as="geometry" />
        </mxCell>
        <mxCell id="kgj0ZtWSBMvPHDnNzbXX-109" style="edgeStyle=orthogonalEdgeStyle;rounded=0;orthogonalLoop=1;jettySize=auto;html=1;entryX=0;entryY=0.5;entryDx=0;entryDy=0;" parent="1" target="kgj0ZtWSBMvPHDnNzbXX-84" edge="1">
          <mxGeometry relative="1" as="geometry">
            <mxPoint x="680" y="234.99999999999977" as="sourcePoint" />
          </mxGeometry>
        </mxCell>
        <mxCell id="kgj0ZtWSBMvPHDnNzbXX-84" value="" style="rounded=0;whiteSpace=wrap;html=1;" parent="1" vertex="1">
          <mxGeometry x="800" y="280" width="20" height="220" as="geometry" />
        </mxCell>
        <mxCell id="kgj0ZtWSBMvPHDnNzbXX-111" value="&lt;span style=&quot;font-size: 20px;&quot;&gt;Nodo&lt;/span&gt;" style="rounded=0;whiteSpace=wrap;html=1;" parent="1" vertex="1">
          <mxGeometry x="800" y="240" width="260" height="40" as="geometry" />
        </mxCell>
        <mxCell id="yrJoEXE7CaM3pGtu8LgF-1" value="&lt;span style=&quot;font-size: 20px;&quot;&gt;dato&lt;/span&gt;" style="rounded=0;whiteSpace=wrap;html=1;" parent="1" vertex="1">
          <mxGeometry x="820" y="280" width="120" height="110" as="geometry" />
        </mxCell>
        <mxCell id="yrJoEXE7CaM3pGtu8LgF-7" style="edgeStyle=orthogonalEdgeStyle;rounded=0;orthogonalLoop=1;jettySize=auto;html=1;entryX=0;entryY=0.5;entryDx=0;entryDy=0;" parent="1" source="yrJoEXE7CaM3pGtu8LgF-8" edge="1">
          <mxGeometry relative="1" as="geometry">
            <mxPoint x="1600" y="335" as="targetPoint" />
          </mxGeometry>
        </mxCell>
        <mxCell id="yrJoEXE7CaM3pGtu8LgF-8" value="" style="rounded=0;whiteSpace=wrap;html=1;" parent="1" vertex="1">
          <mxGeometry x="1220" y="280" width="240" height="110" as="geometry" />
        </mxCell>
        <mxCell id="yrJoEXE7CaM3pGtu8LgF-9" value="" style="endArrow=none;html=1;rounded=0;entryX=0.5;entryY=0;entryDx=0;entryDy=0;exitX=0.5;exitY=1;exitDx=0;exitDy=0;" parent="1" source="yrJoEXE7CaM3pGtu8LgF-8" target="yrJoEXE7CaM3pGtu8LgF-8" edge="1">
          <mxGeometry width="50" height="50" relative="1" as="geometry">
            <mxPoint x="1320" y="360" as="sourcePoint" />
            <mxPoint x="1370" y="310" as="targetPoint" />
          </mxGeometry>
        </mxCell>
        <mxCell id="yrJoEXE7CaM3pGtu8LgF-10" value="&lt;font style=&quot;font-size: 20px;&quot;&gt;siguiente&lt;/font&gt;" style="text;html=1;align=center;verticalAlign=middle;whiteSpace=wrap;rounded=0;" parent="1" vertex="1">
          <mxGeometry x="1360" y="320" width="80" height="30" as="geometry" />
        </mxCell>
        <mxCell id="yrJoEXE7CaM3pGtu8LgF-11" value="" style="rounded=0;whiteSpace=wrap;html=1;" parent="1" vertex="1">
          <mxGeometry x="1200" y="280" width="20" height="110" as="geometry" />
        </mxCell>
        <mxCell id="yrJoEXE7CaM3pGtu8LgF-12" value="&lt;span style=&quot;font-size: 20px;&quot;&gt;Nodo&lt;/span&gt;" style="rounded=0;whiteSpace=wrap;html=1;" parent="1" vertex="1">
          <mxGeometry x="1200" y="240" width="260" height="40" as="geometry" />
        </mxCell>
        <mxCell id="yrJoEXE7CaM3pGtu8LgF-13" value="&lt;span style=&quot;font-size: 20px;&quot;&gt;dato&lt;/span&gt;" style="rounded=0;whiteSpace=wrap;html=1;" parent="1" vertex="1">
          <mxGeometry x="1220" y="280" width="120" height="110" as="geometry" />
        </mxCell>
        <mxCell id="6eTjoDKicTgpKZ9OExMR-10" style="edgeStyle=orthogonalEdgeStyle;rounded=0;orthogonalLoop=1;jettySize=auto;html=1;entryX=0;entryY=0.5;entryDx=0;entryDy=0;" edge="1" parent="1" source="yrJoEXE7CaM3pGtu8LgF-15" target="6eTjoDKicTgpKZ9OExMR-7">
          <mxGeometry relative="1" as="geometry" />
        </mxCell>
        <mxCell id="yrJoEXE7CaM3pGtu8LgF-15" value="" style="rounded=0;whiteSpace=wrap;html=1;" parent="1" vertex="1">
          <mxGeometry x="1620" y="280" width="240" height="110" as="geometry" />
        </mxCell>
        <mxCell id="yrJoEXE7CaM3pGtu8LgF-16" value="" style="endArrow=none;html=1;rounded=0;entryX=0.5;entryY=0;entryDx=0;entryDy=0;exitX=0.5;exitY=1;exitDx=0;exitDy=0;" parent="1" source="yrJoEXE7CaM3pGtu8LgF-15" target="yrJoEXE7CaM3pGtu8LgF-15" edge="1">
          <mxGeometry width="50" height="50" relative="1" as="geometry">
            <mxPoint x="1720" y="360" as="sourcePoint" />
            <mxPoint x="1770" y="310" as="targetPoint" />
          </mxGeometry>
        </mxCell>
        <mxCell id="yrJoEXE7CaM3pGtu8LgF-17" value="&lt;font style=&quot;font-size: 20px;&quot;&gt;siguiente&lt;/font&gt;" style="text;html=1;align=center;verticalAlign=middle;whiteSpace=wrap;rounded=0;" parent="1" vertex="1">
          <mxGeometry x="1760" y="320" width="80" height="30" as="geometry" />
        </mxCell>
        <mxCell id="yrJoEXE7CaM3pGtu8LgF-18" value="" style="rounded=0;whiteSpace=wrap;html=1;" parent="1" vertex="1">
          <mxGeometry x="1600" y="280" width="20" height="110" as="geometry" />
        </mxCell>
        <mxCell id="yrJoEXE7CaM3pGtu8LgF-19" value="&lt;span style=&quot;font-size: 20px;&quot;&gt;Nodo&lt;/span&gt;" style="rounded=0;whiteSpace=wrap;html=1;" parent="1" vertex="1">
          <mxGeometry x="1600" y="240" width="260" height="40" as="geometry" />
        </mxCell>
        <mxCell id="yrJoEXE7CaM3pGtu8LgF-20" value="&lt;span style=&quot;font-size: 20px;&quot;&gt;dato&lt;/span&gt;" style="rounded=0;whiteSpace=wrap;html=1;" parent="1" vertex="1">
          <mxGeometry x="1620" y="280" width="120" height="110" as="geometry" />
        </mxCell>
        <mxCell id="PpdtgeAWT0-9ttJKp4jD-1" value="&lt;span style=&quot;font-size: 20px;&quot;&gt;Lista(?)&lt;/span&gt;" style="rounded=0;whiteSpace=wrap;html=1;" parent="1" vertex="1">
          <mxGeometry x="560" y="180" width="120" height="60" as="geometry" />
        </mxCell>
        <mxCell id="6eTjoDKicTgpKZ9OExMR-3" style="edgeStyle=orthogonalEdgeStyle;rounded=0;orthogonalLoop=1;jettySize=auto;html=1;entryX=0;entryY=0.5;entryDx=0;entryDy=0;" edge="1" parent="1" source="6eTjoDKicTgpKZ9OExMR-1" target="yrJoEXE7CaM3pGtu8LgF-18">
          <mxGeometry relative="1" as="geometry">
            <mxPoint x="1720" y="445" as="targetPoint" />
            <Array as="points">
              <mxPoint x="1550" y="445" />
              <mxPoint x="1550" y="335" />
            </Array>
          </mxGeometry>
        </mxCell>
        <mxCell id="6eTjoDKicTgpKZ9OExMR-1" value="&lt;span style=&quot;font-size: 20px;&quot;&gt;otro_nodo&lt;/span&gt;" style="rounded=0;whiteSpace=wrap;html=1;" vertex="1" parent="1">
          <mxGeometry x="940" y="390" width="120" height="110" as="geometry" />
        </mxCell>
        <mxCell id="6eTjoDKicTgpKZ9OExMR-11" style="edgeStyle=orthogonalEdgeStyle;rounded=0;orthogonalLoop=1;jettySize=auto;html=1;entryX=0;entryY=0.5;entryDx=0;entryDy=0;" edge="1" parent="1" source="6eTjoDKicTgpKZ9OExMR-2" target="6eTjoDKicTgpKZ9OExMR-7">
          <mxGeometry relative="1" as="geometry">
            <Array as="points">
              <mxPoint x="880" y="540" />
              <mxPoint x="1940" y="540" />
              <mxPoint x="1940" y="335" />
            </Array>
          </mxGeometry>
        </mxCell>
        <mxCell id="6eTjoDKicTgpKZ9OExMR-2" value="&lt;span style=&quot;font-size: 20px;&quot;&gt;otro_mas&lt;/span&gt;" style="rounded=0;whiteSpace=wrap;html=1;" vertex="1" parent="1">
          <mxGeometry x="820" y="390" width="120" height="110" as="geometry" />
        </mxCell>
        <mxCell id="6eTjoDKicTgpKZ9OExMR-4" value="" style="rounded=0;whiteSpace=wrap;html=1;" vertex="1" parent="1">
          <mxGeometry x="2020" y="280" width="240" height="110" as="geometry" />
        </mxCell>
        <mxCell id="6eTjoDKicTgpKZ9OExMR-5" value="" style="endArrow=none;html=1;rounded=0;entryX=0.5;entryY=0;entryDx=0;entryDy=0;exitX=0.5;exitY=1;exitDx=0;exitDy=0;" edge="1" parent="1" source="6eTjoDKicTgpKZ9OExMR-4" target="6eTjoDKicTgpKZ9OExMR-4">
          <mxGeometry width="50" height="50" relative="1" as="geometry">
            <mxPoint x="2120" y="360" as="sourcePoint" />
            <mxPoint x="2170" y="310" as="targetPoint" />
          </mxGeometry>
        </mxCell>
        <mxCell id="6eTjoDKicTgpKZ9OExMR-6" value="&lt;font style=&quot;font-size: 20px;&quot;&gt;siguiente&lt;/font&gt;" style="text;html=1;align=center;verticalAlign=middle;whiteSpace=wrap;rounded=0;" vertex="1" parent="1">
          <mxGeometry x="2160" y="320" width="80" height="30" as="geometry" />
        </mxCell>
        <mxCell id="6eTjoDKicTgpKZ9OExMR-7" value="" style="rounded=0;whiteSpace=wrap;html=1;" vertex="1" parent="1">
          <mxGeometry x="2000" y="280" width="20" height="110" as="geometry" />
        </mxCell>
        <mxCell id="6eTjoDKicTgpKZ9OExMR-8" value="&lt;span style=&quot;font-size: 20px;&quot;&gt;Nodo&lt;/span&gt;" style="rounded=0;whiteSpace=wrap;html=1;" vertex="1" parent="1">
          <mxGeometry x="2000" y="240" width="260" height="40" as="geometry" />
        </mxCell>
        <mxCell id="6eTjoDKicTgpKZ9OExMR-9" value="&lt;span style=&quot;font-size: 20px;&quot;&gt;dato&lt;/span&gt;" style="rounded=0;whiteSpace=wrap;html=1;" vertex="1" parent="1">
          <mxGeometry x="2020" y="280" width="120" height="110" as="geometry" />
        </mxCell>
      </root>
    </mxGraphModel>
  </diagram>
</mxfile>
